<svg width="512" height="512" viewBox="0 0 512 512" fill="none" xmlns="http://www.w3.org/2000/svg">
<circle cx="256" cy="256" r="256" fill="#3A3010"/>
<g transform="translate(36.0, 47.5) scale(0.4405)">
<path fill="#DAA520" d="Layer_1"/>
<path fill="#DAA520" d="new 0 0 1024 928"/>
<path fill="#DAA520" d="M156.085327,520.114380 C157.041931,499.811462 159.544022,480.175232 163.203415,460.688446 C165.879700,446.436981 169.600769,432.491364 175.629120,419.217834 C181.058105,407.264008 189.982956,400.790955 203.296204,400.787994 C214.629181,400.785492 225.963699,400.897827 237.294662,400.745300 C247.684525,400.605438 255.385239,405.197388 261.452454,413.343964 C268.557343,422.883850 272.152924,433.878143 275.150513,445.147278 C280.808167,466.416595 284.978394,487.938477 286.485168,509.948456 C286.944580,516.659668 287.425598,516.796997 294.121765,516.792175 C311.454529,516.779602 328.787292,516.762756 346.119995,516.715332 C347.923157,516.710388 349.792511,517.018860 351.966217,515.835999 C351.803375,510.713776 349.343414,506.203979 346.935669,501.777130 C342.363281,493.370453 338.838684,484.529755 338.070496,475.029266 C336.676117,457.785034 338.311035,440.768005 343.777740,424.218445 C345.055084,420.351532 346.554474,416.359894 344.038269,411.172577 C341.053711,416.551056 338.612488,421.341797 335.815613,425.915039 C328.281952,438.233704 319.520996,449.433014 306.568451,456.611145 C303.494781,458.314514 300.362762,459.851562 296.776398,460.136261 C289.384277,460.723022 284.843292,456.109528 285.093994,448.698334 C285.233063,444.586456 287.084869,441.002289 287.938873,437.117310 C290.920288,423.554413 285.136230,412.390442 278.695190,401.367065 C271.786102,389.542572 266.246857,377.050629 262.494507,363.958557 C257.917328,347.988495 258.302124,331.997589 266.259155,316.895020 C268.870728,311.938202 273.257324,308.485870 277.886688,305.452057 C290.044098,297.484802 303.907166,293.794617 317.618530,289.749878 C326.558014,287.112793 335.614594,284.838043 344.450378,281.895477 C350.860168,279.760803 355.196625,274.245850 360.667847,270.517914 C375.150452,260.649841 390.814758,255.878387 407.249664,263.272217 C414.936798,266.730530 420.207001,264.655609 426.669891,262.117981 C440.930145,256.518677 455.913940,255.532669 470.915802,257.364685 C479.608734,258.426239 488.372955,259.445923 496.931427,261.848816 C503.545593,263.705841 509.961853,260.232788 516.441956,259.147430 C535.567261,255.944061 554.808594,254.160248 572.953674,262.149628 C581.458862,265.894501 588.012695,264.876251 596.250000,262.104584 C610.571045,257.285828 624.530457,260.038239 636.833618,269.177094 C646.064758,276.033966 655.215637,282.905609 666.684509,285.761444 C675.822205,288.036804 684.883911,290.615540 693.995422,292.998260 C705.364380,295.971405 716.152283,300.450836 725.510986,307.498199 C735.796021,315.243103 739.411072,326.761749 740.182861,339.041321 C741.103455,353.688141 736.365295,367.231079 730.955261,380.601166 C726.636719,391.273590 720.615906,401.051910 715.561768,411.330292 C710.993530,420.620483 709.732056,430.412781 712.776611,440.456787 C713.723083,443.579193 713.783325,446.727692 713.716736,449.840576 C713.547852,457.744476 708.293945,461.492004 700.588013,459.706512 C693.509033,458.066315 688.119507,453.682953 682.684326,449.250061 C671.444153,440.082672 664.414673,427.925995 658.176392,415.181335 C657.591003,413.985443 657.043457,412.765686 656.366638,411.623138 C656.160400,411.274933 655.580017,411.148376 654.598328,410.601044 C653.852051,415.524139 653.792786,420.008209 655.428528,424.445160 C665.221680,451.009247 664.999268,477.181183 652.462524,502.912567 C650.500610,506.939240 648.812134,511.099243 647.008667,515.202637 C646.949646,515.336914 647.016602,515.526489 647.029419,515.781677 C648.191406,517.428406 650.011719,516.832397 651.567322,516.831604 C669.899658,516.822693 688.232605,516.650635 706.563843,516.768616 C710.682983,516.795105 712.605652,515.647949 712.930481,511.284302 C714.204163,494.170898 717.318726,477.308533 720.917908,460.568024 C724.808411,442.472443 729.220947,424.475739 741.317749,409.612274 C745.886780,403.998291 751.635681,400.830902 758.999573,400.823578 C771.998901,400.810638 785.003235,400.510742 797.996094,400.782654 C811.137390,401.057648 820.012817,408.501465 824.811829,419.987610 C833.197510,440.058136 837.442200,461.308655 840.062317,482.832153 C842.981567,506.813110 844.558228,530.898132 843.972229,555.075684 C843.240906,585.252319 840.460144,615.155151 833.159546,644.585205 C829.766541,658.263184 826.380310,671.723633 817.243042,682.922363 C813.350403,687.693237 808.635437,690.382202 802.197327,690.304321 C787.534058,690.127075 772.858643,690.038269 758.203735,690.457642 C750.502136,690.678040 745.253418,687.410339 740.815918,681.618958 C733.224060,671.710815 728.487427,660.798706 725.119385,648.628723 C721.382507,635.125916 719.082214,621.409729 715.990845,607.826111 C714.435608,600.992432 713.855225,594.026001 713.742981,587.009033 C713.651367,581.276306 712.573181,580.342651 706.994263,580.331726 C677.162415,580.273254 647.329651,580.314087 617.499695,580.041565 C612.042419,579.991699 609.194824,582.394287 607.371948,587.041016 C604.072998,595.450439 600.521667,603.546631 592.506714,608.948181 C582.772156,615.508606 572.306030,616.682617 561.500244,613.514526 C556.529785,612.057312 553.135071,613.492554 549.632080,616.171814 C535.512329,626.971313 519.411621,631.826538 501.817230,632.084045 C482.258301,632.370422 464.238556,627.631348 448.687164,615.241333 C445.435699,612.650818 442.203613,611.889404 438.093475,613.474670 C419.827179,620.519775 399.661713,608.205505 394.034668,591.925293 C393.330475,589.887817 392.313965,587.953430 391.378632,586.001709 C389.468781,582.016602 386.508881,580.187256 381.858643,580.207764 C352.193787,580.338745 322.527893,580.291321 292.862671,580.196106 C288.762024,580.182983 286.338593,581.082764 286.035278,585.880981 C284.898987,603.857056 281.244141,621.413513 277.211212,638.948242 C275.115082,648.062134 273.113373,657.141541 269.014679,665.528870 C264.503082,674.761292 260.112793,684.366638 249.993530,689.032349 C242.558762,692.460205 234.515457,690.957153 226.777817,690.722534 C217.613754,690.444763 208.433075,689.951294 199.301895,690.452393 C187.875275,691.079407 182.026398,683.651794 176.919708,675.586670 C173.019928,669.427734 171.103897,662.284546 169.456604,655.067200 C167.315857,645.687866 163.588501,636.703247 162.430099,627.042358 C160.354584,609.733154 157.053253,592.620667 156.564087,575.060852 C156.058121,556.898132 155.872620,538.756531 156.085327,520.114380 M536.923767,284.638947 C541.330444,289.822632 546.652161,294.222473 550.062561,300.268585 C551.128723,302.158722 553.013184,303.941284 551.079773,306.031219 C549.201538,308.061554 547.025513,306.649170 545.144104,305.638611 C537.936890,301.767731 531.940491,296.145081 525.138428,291.695129 C520.171265,288.445587 516.443665,282.552948 509.103027,284.120728 C502.508514,285.529114 495.863037,285.293365 489.239746,284.142273 C485.901031,283.562012 483.105896,284.433167 480.560913,286.797821 C473.706635,293.166443 465.389801,297.581268 458.048798,303.320587 C456.257385,304.721130 453.930664,305.459778 451.805176,306.401459 C450.577332,306.945465 449.226959,307.351624 448.090820,306.171295 C446.818054,304.849060 447.274231,303.383728 447.965454,302.004059 C448.559723,300.817993 449.150299,299.577728 449.999786,298.580627 C454.421387,293.390900 458.929291,288.274750 463.397156,283.124329 C464.240417,282.152222 465.464233,281.332397 464.902588,279.583740 C464.399170,279.322479 463.846527,278.908020 463.227539,278.744110 C462.270721,278.490753 461.270325,278.286743 460.285339,278.272369 C446.672943,278.073975 433.877319,281.471741 422.002350,287.892670 C417.190643,290.494385 413.013184,290.891968 408.448364,288.007416 C407.185211,287.209198 405.853394,286.491150 404.484497,285.893250 C393.219208,280.972778 382.826233,281.066437 372.926575,289.750885 C365.552185,296.220123 361.690369,304.948761 356.189178,312.604370 C346.003296,326.779388 342.395538,343.838928 336.520660,359.836609 C331.555298,373.357635 330.008972,387.991119 324.295319,401.369263 C323.729675,402.693634 322.638428,404.145477 324.279755,406.544281 C328.002289,398.298676 331.874695,390.927948 334.718170,383.179596 C341.298126,365.249481 347.438751,347.206360 357.863770,330.943848 C367.544617,315.842224 381.735107,307.794128 398.485901,303.291656 C399.891418,302.913879 401.183868,302.938995 402.027405,304.274139 C402.971069,305.767792 402.499573,307.187744 401.403534,308.380798 C399.829254,310.094482 398.045288,311.627625 396.570831,313.418915 C384.729187,327.805054 375.485016,343.772522 369.352081,361.312866 C365.688538,371.790771 362.217133,382.782959 364.886017,394.056122 C368.526520,409.433624 367.896515,424.590057 363.044678,439.340363 C356.440765,459.417328 359.380554,478.361969 367.764099,497.026337 C367.930725,497.397278 368.467102,497.602173 368.890076,497.930420 C370.460236,496.457214 369.845490,494.689606 369.558502,493.202301 C368.215057,486.240631 368.460999,479.215759 369.121948,472.277679 C369.798401,465.176910 371.218964,458.126770 373.998596,451.463623 C374.659332,449.879822 375.621429,448.303925 377.579041,448.525055 C379.449127,448.736298 379.627502,450.433929 379.704651,451.985504 C380.220184,462.355896 382.827118,472.359558 385.812103,482.182922 C387.379456,487.341003 388.102600,493.140869 392.289337,497.783905 C393.101257,496.686859 393.794098,496.109436 394.025879,495.384613 C398.624786,481.001984 408.479034,470.034760 417.962280,458.891998 C421.493286,454.743073 425.800934,451.244446 429.849579,447.553619 C430.968781,446.533325 432.546234,445.905579 433.986237,446.917511 C435.589783,448.044373 434.970764,449.604645 434.207306,450.939880 C430.512817,457.401672 426.663025,463.697083 423.913666,470.743195 C419.588715,481.827393 412.788788,491.773468 409.453156,503.458801 C407.142700,511.552826 407.374268,518.652100 409.815704,526.701782 C415.098267,544.119263 438.265625,553.281738 454.892792,549.062195 C465.293976,546.422607 474.669312,541.289673 483.654114,535.466431 C485.985168,533.955627 487.589722,531.855469 488.884705,529.530762 C490.902039,525.909180 490.158203,518.164368 487.580536,516.524231 C484.640869,514.653809 481.648315,512.718628 478.423096,511.474091 C470.545197,508.434021 465.472260,502.350250 460.599609,495.966125 C459.781952,494.894836 459.120819,493.630188 459.861389,492.265747 C460.726410,490.672150 462.341370,490.579834 463.811188,490.937836 C465.405396,491.326233 466.934723,492.037415 468.440430,492.722015 C472.942993,494.769226 477.259918,494.133331 481.309143,491.652435 C484.819977,489.501404 486.435425,484.436615 484.935425,481.159119 C484.361115,479.904175 483.647522,478.711792 482.080109,478.763702 C480.664703,478.810577 480.353546,480.069244 479.861511,481.142853 C475.676544,490.274200 464.510529,492.061523 457.488373,484.808258 C454.904205,482.139038 455.532990,478.551239 454.653442,475.429626 C452.201111,466.725922 458.216431,453.019257 466.356110,449.308868 C488.819031,439.069611 511.386841,438.213196 533.703613,449.841217 C544.212158,455.316650 549.182861,471.839142 543.620544,482.094360 C541.402100,486.184601 538.183594,488.820129 533.222290,488.523315 C528.509399,488.241425 523.271729,489.269135 520.826904,483.387787 C520.042786,481.501526 519.605591,478.675964 516.560791,479.702637 C513.729980,480.657166 514.060120,483.374176 514.278320,485.685333 C514.589417,488.980591 516.530518,491.049957 519.571106,492.309326 C524.501343,494.351349 529.243774,494.214355 534.027832,491.784607 C535.755859,490.906921 538.013306,489.884888 539.459473,492.012329 C540.665649,493.786713 539.193115,495.617340 538.145325,496.990570 C533.828369,502.648376 529.877869,508.631622 522.419128,510.971985 C518.821777,512.100769 515.609009,514.425049 512.170654,516.102478 C510.303925,517.013184 509.515289,518.421570 509.340973,520.427856 C508.626495,528.652344 511.290955,532.982605 518.308044,537.333862 C521.968994,539.603943 525.939636,541.395935 529.845215,543.245972 C538.801331,547.488464 548.024841,550.979004 558.169861,549.788086 C586.107361,546.508667 599.881470,523.379639 588.565796,497.502686 C581.752747,481.922516 575.577820,465.739441 565.404053,451.735413 C564.493164,450.481506 563.958496,448.910278 565.297729,447.634369 C566.829651,446.174835 568.467773,446.928619 569.775146,448.067566 C572.033813,450.035309 574.145447,452.170837 576.341309,454.211731 C586.138428,463.317261 594.721802,473.380096 600.927673,485.322449 C602.865051,489.050842 604.795898,492.782654 606.647339,496.354004 C608.315979,496.095490 608.723450,495.131378 609.130615,494.238586 C614.893860,481.599731 618.784729,468.451843 619.813354,454.539948 C619.956299,452.606537 619.247986,450.090759 621.795715,449.470428 C624.656921,448.773682 625.450867,451.383057 626.058716,453.381439 C629.759888,465.550507 632.448853,477.850677 630.496399,490.716614 C630.156738,492.954803 629.516663,495.356018 631.251099,498.562408 C634.434937,490.005737 637.263550,482.410431 639.141907,474.485565 C640.219299,469.939819 641.369629,465.332092 640.560120,460.669525 C638.710327,450.015289 637.295837,439.209412 634.374634,428.839813 C631.746887,419.511871 631.812561,410.412354 633.693176,401.298065 C635.852234,390.834167 636.388672,380.740967 633.032898,370.340302 C628.479919,356.228729 623.648132,342.357056 614.987793,330.104645 C610.015137,323.069489 605.503174,315.714050 599.792236,309.204285 C598.713989,307.975250 596.969849,306.648376 597.937561,304.414825 C600.434509,303.188599 602.810059,304.090973 605.213928,304.725067 C627.272949,310.543854 640.769836,325.765625 650.073303,345.577881 C655.601379,357.350098 659.363403,369.782959 663.806519,381.966858 C666.779053,390.118286 670.950073,397.832703 675.104065,406.872711 C676.131348,403.279633 675.378235,401.316315 674.647217,399.324371 C672.183411,392.610657 669.673828,385.928741 668.158813,378.892120 C663.159058,355.670715 655.167542,333.520142 643.693176,312.694977 C641.618652,308.929840 638.595032,305.693909 636.447632,301.961578 C625.785645,283.430115 609.166077,277.342773 590.755554,288.070953 C586.547363,290.523102 582.627625,290.882874 578.533997,288.446869 C572.446716,284.824524 565.671387,283.061310 559.051392,280.817139 C550.520081,277.924988 541.965759,277.918060 533.055054,279.287292 C533.736206,281.713440 535.424255,282.684937 536.923767,284.638947 M214.645203,420.179413 C210.315659,420.177582 205.984116,420.256012 201.657211,420.148193 C198.285843,420.064178 196.146576,421.565491 194.352783,424.380554 C190.989594,429.658447 189.306976,435.593018 187.335556,441.387146 C181.729767,457.862915 179.363556,474.957611 178.268753,492.253143 C177.636444,502.242035 178.203659,502.805908 188.056107,502.968262 C189.221817,502.987457 190.387817,502.993500 191.553711,502.996490 C198.716812,503.014679 201.085587,501.290039 201.559708,494.291229 C202.248428,484.124542 204.693985,474.303741 206.377838,464.327362 C208.690033,450.628174 212.478134,437.472961 217.490829,424.596191 C218.350052,422.388977 218.368851,420.639740 214.645203,420.179413 M820.134094,484.163849 C820.157532,477.795776 818.679932,471.629486 817.711548,465.385773 C815.507996,451.179321 811.736145,437.511841 805.079712,424.680847 C803.476685,421.590881 801.196960,420.250275 797.970215,420.214020 C793.643799,420.165497 789.315308,420.229797 784.988708,420.305481 C781.902466,420.359436 780.353638,421.613647 782.352478,424.631836 C784.705261,428.184357 785.856079,432.183807 786.925598,436.184601 C792.206055,455.938110 796.998047,475.794525 798.336121,496.297974 C798.572388,499.917694 800.151978,502.487518 803.934937,502.743958 C807.906921,503.013184 811.932434,503.060028 815.895874,502.734375 C820.129639,502.386536 821.964905,499.655243 821.519287,495.467255 C821.149902,491.994751 820.688354,488.532013 820.134094,484.163849 M461.607544,589.026855 C456.641663,592.749329 456.492828,593.864441 461.118561,597.535461 C468.928558,603.733459 477.813538,607.569031 487.632965,609.423584 C506.267883,612.943176 523.195374,609.602234 538.321899,597.750427 C541.968262,594.893433 541.926758,592.937378 538.599304,589.976624 C533.702209,585.619263 527.860840,583.489136 521.716309,581.926208 C511.410431,579.304871 500.894409,580.403748 490.446350,580.269958 C480.151001,580.138123 470.852753,583.292114 461.607544,589.026855 M366.499939,534.139099 C333.860077,534.143188 301.220184,534.129944 268.580383,534.169189 C263.479614,534.175354 261.595856,536.170044 261.548431,541.033142 C261.505310,545.454163 264.281250,546.074890 267.847656,546.068176 C308.646790,545.991760 349.446014,545.969666 390.245148,545.894409 C391.831116,545.891479 393.593292,546.328430 394.936890,544.979797 C392.808868,536.034973 390.348755,533.971069 381.987213,534.042358 C377.158173,534.083557 372.328979,534.106689 366.499939,534.139099 M701.500000,534.123169 C674.016174,534.138489 646.532288,534.157898 619.048462,534.166931 C609.548584,534.170044 607.555786,535.629883 604.239624,545.131653 C605.498535,546.245056 607.058350,545.907288 608.502502,545.908325 C649.476868,545.937439 690.451233,545.938965 731.425598,545.952209 C735.058044,545.953369 738.073303,545.520447 738.007446,540.645935 C737.946106,536.104919 736.286865,533.920593 731.481018,534.019836 C721.824036,534.219238 712.160706,534.109375 701.500000,534.123169 M249.511398,508.985901 C249.058273,508.095917 248.644669,507.183075 248.145523,506.319702 C245.211349,501.244354 242.374588,501.098267 238.694534,505.803528 C236.925476,508.065430 235.734619,510.616547 234.915100,513.347107 C228.802002,533.715942 228.792984,554.327026 232.763474,575.023743 C233.699631,579.903687 235.274963,584.736511 238.212479,588.866333 C239.502106,590.679443 241.024429,593.212158 243.725861,592.331299 C248.179306,590.879150 249.458817,586.637146 250.974426,582.747070 C251.947327,580.249878 249.886658,579.651855 248.445694,578.615173 C246.664352,577.333496 245.054230,575.805603 244.406143,573.663391 C239.358582,556.978760 239.225143,540.298218 244.688812,523.673096 C245.421097,521.444885 246.453613,519.066406 248.440002,517.898071 C252.443558,515.543213 252.085373,512.857239 249.511398,508.985901 M749.287415,580.473755 C748.242737,582.539062 749.283569,584.408997 750.021973,586.191162 C751.131470,588.868774 752.858704,591.419800 755.948364,591.639038 C759.325745,591.878662 761.302185,589.374573 762.750549,586.602844 C763.206970,585.729553 763.474487,584.753662 763.792114,583.812378 C768.421753,570.089722 769.592834,555.892883 768.942444,541.574097 C768.474365,531.269226 766.336548,521.125793 763.458679,511.235718 C762.395935,507.583405 760.811218,502.886536 756.294373,502.483032 C751.903748,502.090851 751.113708,506.941589 749.168884,509.879028 C748.714661,510.564972 748.476013,511.389709 748.087036,512.123474 C746.939575,514.288330 747.373352,515.873596 749.614319,517.045959 C753.647034,519.155579 754.897217,522.948425 756.192200,527.062073 C759.381042,537.191711 757.987366,547.525696 758.128723,557.768005 C758.243958,566.115784 756.027222,573.887512 749.287415,580.473755 M490.537262,461.947174 C500.730438,461.530579 511.072845,463.035309 521.334900,460.488251 C520.439575,457.238800 518.462646,456.752502 516.529907,456.316132 C505.034454,453.720612 493.533936,453.841766 482.033661,456.321716 C479.799713,456.803436 477.912598,457.566772 477.969208,460.735199 C481.665161,462.521545 485.673431,461.794647 490.537262,461.947174 M564.427002,588.105713 C568.144104,591.034729 571.439941,595.246582 577.094116,592.605957 C581.943848,590.340942 584.771118,586.644287 585.172302,580.821899 C576.526367,580.821899 568.261230,580.821899 559.910461,580.821899 C560.133850,584.261475 562.819763,585.411438 564.427002,588.105713 M438.324646,580.775269 C430.238312,581.427490 422.045135,580.333923 413.848083,581.606140 C415.959167,588.934509 420.369934,592.917847 425.860565,592.939209 C429.857483,592.954712 438.667664,586.397705 439.889374,582.444153 C440.114349,581.716187 439.605560,581.228760 438.324646,580.775269 M790.955139,566.266296 C791.099182,568.705017 791.536621,571.227173 794.446655,571.494324 C796.925354,571.721863 798.068359,569.476868 799.136230,567.593750 C800.815735,564.631775 800.409851,561.481628 799.683594,558.381226 C799.274658,556.635620 798.092957,555.448547 796.200439,555.324951 C794.461121,555.211426 793.462463,556.337219 792.778198,557.753601 C791.609009,560.173706 790.916504,562.720337 790.955139,566.266296 z"/>
<path fill="#DAA520" d="M904.319336,588.321045 C903.427734,602.433838 901.265625,615.888245 898.105469,629.194336 C896.547913,635.752319 893.543884,641.721436 890.337524,647.541687 C886.556763,654.404602 879.887329,655.679932 872.752075,655.610413 C864.758240,655.532471 856.763611,655.501221 848.770569,655.373413 C843.957275,655.296448 843.408203,654.238831 844.537354,649.559937 C848.900879,631.479248 852.851746,613.373108 854.009338,594.674072 C855.316406,573.559875 856.658813,552.453308 855.701233,531.322144 C854.783875,511.076935 854.460205,490.770477 850.315186,470.756226 C848.335693,461.198578 847.175659,451.462830 844.460754,442.051575 C843.425354,438.462494 844.817078,437.029999 848.308960,437.042023 C857.304565,437.072968 866.309265,436.844330 875.293274,437.178741 C885.108032,437.544098 891.479675,442.896851 894.807800,452.877533 C899.878540,468.084167 902.602051,483.734955 904.088501,499.678925 C906.178101,522.091675 906.504028,544.542969 906.076294,567.012146 C905.943787,573.972229 904.973022,580.916321 904.319336,588.321045 M874.282898,498.945679 C875.586548,503.634186 879.502625,504.097656 883.039673,503.264313 C886.866272,502.362732 886.974915,498.529785 886.364746,495.375336 C884.288452,484.640930 883.429993,473.695801 880.192749,463.150299 C877.652283,454.874298 875.619446,453.495361 866.298340,456.247650 C867.815430,463.107666 869.512390,469.990387 870.826721,476.945404 C872.153870,483.968231 873.101807,491.062775 874.282898,498.945679 z"/>
<path fill="#DAA520" d="M126.063843,655.285889 C114.036095,655.177917 108.687737,650.917664 104.487968,638.108521 C98.748802,620.604309 96.493057,602.475403 94.860367,584.214417 C93.121536,564.765991 93.301338,545.261108 93.962738,525.830688 C94.742813,502.913910 96.944107,480.032227 103.139091,457.778259 C104.211334,453.926514 105.925064,450.321716 107.912285,446.823395 C111.834206,439.919220 117.520096,436.709930 125.567108,437.027527 C133.547638,437.342468 141.552643,437.003357 149.546753,437.019043 C155.114166,437.029999 156.368011,438.370087 154.974731,443.537506 C146.725464,474.132965 144.853897,505.414764 143.720078,536.913330 C142.931870,558.809692 144.565704,580.508545 146.581207,602.164856 C147.960434,616.984497 150.252930,631.853088 154.703430,646.223267 C157.275528,654.528259 155.949951,655.985901 147.484482,655.582581 C140.515762,655.250549 133.525330,655.374512 126.063843,655.285889 M124.613281,500.939026 C126.433357,497.756195 125.672607,494.110168 126.414429,490.707916 C128.492767,481.176025 130.306870,471.575928 131.861893,461.944092 C132.944382,455.239136 131.239761,453.977753 124.495842,455.307281 C121.484268,455.900970 120.686462,458.162720 119.824654,460.541046 C115.825699,471.577209 114.834328,483.204285 113.188957,494.693115 C112.805962,497.367371 111.823135,500.663269 114.835007,502.447357 C117.939720,504.286469 121.218826,503.631714 124.613281,500.939026 z"/>
<path fill="#DAA520" d="M918.433044,518.166626 C937.596802,514.485474 949.922485,516.641602 952.835205,541.221069 C953.630188,547.929077 953.442017,554.801147 952.144409,561.609436 C950.311401,571.227783 941.958679,581.597473 930.214600,580.725220 C917.437866,579.776367 916.011292,582.975098 917.618164,567.771484 C918.193115,562.331360 917.894958,556.786987 917.808411,551.293152 C917.748535,547.494385 919.381165,545.707336 923.184631,545.880554 C924.514587,545.941101 925.849121,545.901733 927.181519,545.910583 C930.565735,545.932983 934.078186,546.403870 934.035095,541.171875 C933.986511,535.278320 933.241028,534.318787 927.149353,534.032104 C925.652710,533.961670 924.147766,533.893921 922.654053,533.970459 C919.261353,534.144104 917.430237,532.494995 917.870178,529.213257 C918.352905,525.611938 916.022400,521.980896 918.433044,518.166626 z"/>
<path fill="#DAA520" d="M70.047852,516.856567 C70.693993,516.868896 70.860367,516.872559 71.026749,516.873230 C82.904434,516.920959 83.027161,517.197998 81.401871,528.959167 C80.907585,532.536011 79.151222,533.897278 75.881660,533.981079 C74.053497,534.027954 72.223167,533.984009 70.394386,534.014832 C64.823151,534.108704 64.828957,538.388733 64.531372,542.163269 C64.161057,546.860352 67.922585,545.797852 70.491798,545.891296 C80.705917,546.262695 80.721809,546.202271 81.399872,556.191650 C81.826439,562.476074 81.619011,568.791077 82.545914,575.057678 C83.024956,578.296265 81.236160,580.197388 77.996986,580.242432 C72.676682,580.316345 67.240486,580.817444 62.057667,579.935974 C54.557178,578.660278 51.354092,572.185364 49.296906,565.899902 C45.478470,554.233276 45.817833,542.286438 49.723595,530.631714 C53.092182,520.580017 59.007313,516.678345 70.047852,516.856567 z"/>
<path fill="#DAA520" d="M406.031311,376.950104 C410.419525,373.759308 415.099213,371.940643 419.799835,370.282898 C428.890167,367.077179 436.732300,370.059753 443.858734,375.937988 C445.637970,368.790710 439.624664,361.269623 431.425842,360.126160 C425.798309,359.341278 420.166351,358.975098 414.552216,360.361481 C413.183472,360.699493 411.392242,361.674408 410.593201,359.758057 C409.778656,357.804443 411.513092,356.803467 412.869324,355.840302 C418.154358,352.086914 424.010345,349.829651 430.513245,349.769714 C433.580261,349.741486 435.749603,348.963623 437.734161,346.386688 C441.099579,342.016632 450.757294,342.348602 456.135498,346.047272 C470.010803,355.589539 474.420197,374.586151 467.472656,393.254059 C464.380585,401.562347 459.614594,409.032013 455.306030,416.720123 C454.432190,418.279480 453.098907,419.688629 451.699158,420.824036 C448.646332,423.300385 446.349854,422.334137 445.932800,418.409668 C445.669769,415.934082 445.851074,413.414764 445.726685,410.920319 C445.411163,404.592499 443.790833,403.552643 437.895081,405.611786 C432.465332,407.508179 427.179199,409.583527 421.157990,407.103790 C416.832489,405.322418 413.079376,402.899567 410.354370,399.332397 C407.590515,395.714325 404.503387,394.868347 400.418823,396.154236 C399.314453,396.501862 398.139008,396.621948 396.997955,396.855194 C395.264954,397.209442 393.628479,397.160400 392.574890,395.469666 C391.630280,393.953796 392.307922,392.521576 393.154999,391.275848 C396.726959,386.022980 400.706024,381.118530 406.031311,376.950104 M422.528473,387.033447 C423.641693,389.212372 425.266327,390.400940 427.749481,389.388702 C429.531952,388.662048 430.098236,387.158142 429.706604,385.319183 C429.324036,383.522491 428.340149,382.280914 426.352844,382.302460 C423.746033,382.330811 422.423676,383.720459 422.528473,387.033447 z"/>
<path fill="#DAA520" d="M593.167969,376.767090 C598.748840,380.659454 601.806763,386.428680 606.365234,390.802704 C607.650757,392.036194 608.021545,393.743683 606.958435,395.365448 C605.930664,396.933319 604.134583,397.684448 602.593445,396.890045 C595.670776,393.321472 591.567627,396.142731 586.754272,401.582367 C580.078430,409.126770 571.124451,410.095032 561.784607,405.758057 C556.352417,403.235596 554.649597,404.333160 554.086243,410.330444 C553.806824,413.305847 553.598267,416.288788 553.263672,419.257721 C553.113892,420.586914 552.779236,421.966675 551.249451,422.419586 C549.598083,422.908539 548.308899,422.178070 547.336182,420.895996 C535.397827,405.160583 526.883301,388.344208 529.799011,367.655243 C531.128540,358.221497 539.519531,344.522736 552.104858,343.152893 C555.960999,342.733154 559.554443,342.867737 561.802002,346.541504 C563.173584,348.783478 565.203064,348.854156 567.385254,349.052277 C574.488342,349.697296 580.880737,352.367126 586.848572,356.141266 C588.103149,356.934662 589.651367,357.867432 589.137878,359.616943 C588.531555,361.682861 586.759827,360.798065 585.338501,360.614838 C582.206909,360.211121 579.072510,359.829193 575.941101,359.424347 C568.370972,358.445709 562.321228,361.533752 557.135620,366.648438 C554.762939,368.988586 553.947693,371.937378 555.032532,376.323395 C568.001831,364.651947 580.518677,368.333252 593.167969,376.767090 M575.468994,389.107300 C577.550781,387.216888 577.987244,385.274475 575.626282,383.272339 C573.835510,381.753693 571.931335,381.848145 570.199463,383.237152 C568.484741,384.612427 567.750244,386.493958 569.056824,388.490967 C570.558716,390.786621 572.583618,391.391052 575.468994,389.107300 z"/>
<path fill="#DAA520" d="M416.647980,449.671082 C414.705963,452.026367 416.748535,456.672180 412.735382,456.740540 C408.616241,456.810669 409.303619,452.540161 408.333099,449.924164 C407.026672,446.402740 404.709015,443.546539 402.179871,440.946472 C394.486481,433.037384 390.415161,423.414093 388.263550,412.801178 C387.925995,411.136169 387.434235,409.255859 389.317505,408.390015 C391.432404,407.417755 392.770081,409.138245 393.760834,410.639435 C400.546783,420.921692 409.303406,427.689056 422.313812,427.586609 C425.409119,427.562256 426.953247,431.396667 424.694641,433.898315 C420.634949,438.394836 419.420929,444.178406 416.647980,449.671082 z"/>
<path fill="#DAA520" d="M607.046997,426.819336 C603.617676,433.759155 599.529724,439.782867 594.421448,445.102112 C592.434875,447.170685 590.884521,449.529480 590.357239,452.398407 C589.987488,454.409821 589.785034,456.715759 587.192688,456.746521 C584.756775,456.775391 584.921387,454.239288 584.225098,452.671600 C581.462891,446.451874 578.690918,440.234619 576.063782,433.957336 C574.151978,429.389221 575.037903,427.619995 580.362610,427.271149 C586.392517,426.876068 591.977966,425.707642 596.373779,421.427704 C599.916626,417.978241 603.937256,414.917542 606.357605,410.417694 C607.055481,409.120178 607.838257,407.409607 609.625793,407.882843 C611.742554,408.443237 611.557312,410.528809 611.192871,412.081848 C610.056458,416.924652 609.170227,421.850006 607.046997,426.819336 z"/>
<path fill="#DAA520" d="M471.547546,329.399475 C469.166077,327.855774 466.997040,326.629242 464.965393,325.206482 C463.689880,324.313202 462.847839,322.976746 463.498199,321.323273 C464.220581,319.486725 465.851898,319.685577 467.322693,320.020172 C470.723022,320.793701 474.174286,321.457336 477.465790,322.575043 C489.995605,326.829865 495.900482,337.815918 493.981201,352.988190 C493.668671,355.458893 493.351044,357.931305 492.932434,360.385284 C492.674835,361.895538 492.126465,363.493805 490.379272,363.680420 C488.438385,363.887726 488.000519,362.210938 487.646759,360.730652 C487.145813,358.634277 486.533051,356.542236 486.285278,354.411469 C485.076965,344.019775 479.227325,336.381195 471.547546,329.399475 z"/>
<path fill="#DAA520" d="M516.499512,343.715027 C514.963806,349.688965 512.469238,355.009491 511.936188,360.863525 C511.833130,361.995026 511.398010,363.250305 509.940125,363.363251 C508.449005,363.478821 508.045715,362.289764 507.681824,361.157288 C504.404297,350.957092 504.366730,340.915497 509.595703,331.311127 C512.651733,325.697845 527.035461,319.246521 533.590820,320.210754 C534.683960,320.371552 535.531860,320.755188 535.748169,321.889587 C536.037048,323.404449 535.172668,324.401154 534.035156,325.213409 C528.469299,329.187714 523.323975,333.608063 519.313843,339.212158 C518.357239,340.548859 517.519470,341.970581 516.499512,343.715027 z"/>
</g>
</svg>